# xmcd
#
# Track frame offsets:
#	150
#	13435
#	15382
#	22890
#	29430
#	41235
#	51475
#	59587
#	69855
#	82430
#	88592
#	104117
#	112992
#	121245
#	128005
#	135812
#	151210
#	154192
#	160867
#	171022
#	178122
#	197500
#
# Disc length: 2767 seconds
#
# Revision: 1
# Processed by: cddbd v1.5.1PL0 Copyright (c) Steve Scherf et al.
# Submitted via: CDex 1.50Beta5
#
DISCID=260acd16
DTITLE=J.A.シーザー - さらば箱舟
DYEAR=1900
DGENRE=Soundtrack
TTITLE0=さらば箱舟〜メイン・テーマ
TTITLE1=真鍮の蟹
TTITLE2=スエ、三十一才俺の妻
TTITLE3=黄色い花
TTITLE4=神様トンボ かくれんぼ
TTITLE5=陽が昇る 陽が沈む
TTITLE6=また・・・死んだ
TTITLE7=ねんねこ どっちゃん
TTITLE8=古いキネマの港町
TTITLE9=村に眠り病が蔓延した日
TTITLE10=水に沈んだ歌
TTITLE11=靴が鳴る〜ツバナのテーマ
TTITLE12=闘鶏祭
TTITLE13=闇のテーマ
TTITLE14=俺の死〜悲歌
TTITLE15=ひな祭文
TTITLE16=村の子守唄
TTITLE17=竈だ!竈が走ってきた
TTITLE18=ゆびさすところは隣町
TTITLE19=あとには誰もいなくなった
TTITLE20=百年たったら帰っておいで
TTITLE21=銀板写真〜エンディング
EXTD=
EXTT0=
EXTT1=
EXTT2=
EXTT3=
EXTT4=
EXTT5=
EXTT6=
EXTT7=
EXTT8=
EXTT9=
EXTT10=
EXTT11=
EXTT12=
EXTT13=
EXTT14=
EXTT15=
EXTT16=
EXTT17=
EXTT18=
EXTT19=
EXTT20=
EXTT21=
PLAYORDER=
